<?xml version="1.0" standalone="no"?>
<!DOCTYPE svg PUBLIC "-//W3C//DTD SVG 20010904//EN"
 "http://www.w3.org/TR/2001/REC-SVG-20010904/DTD/svg10.dtd">
<svg version="1.0" xmlns="http://www.w3.org/2000/svg"
 width="300.000000pt" height="169.000000pt" viewBox="0 0 300.000000 169.000000"
 preserveAspectRatio="xMidYMid meet">
<metadata>
Created by potrace 1.10, written by Peter Selinger 2001-2011
</metadata>
<g transform="translate(0.000000,169.000000) scale(0.100000,-0.100000)"
fill="#000000" stroke="none">
<path d="M1125 1369 c-80 -30 -132 -120 -122 -213 5 -53 42 -154 52 -144 3 3
-5 27 -17 54 -29 64 -30 154 -4 207 44 89 158 117 262 64 27 -14 57 -34 68
-46 l19 -20 -52 6 c-97 11 -197 -40 -236 -123 -20 -42 -37 -155 -25 -167 4 -5
9 23 12 62 11 149 118 237 263 215 51 -7 58 -19 18 -29 -92 -22 -210 -126
-257 -225 -27 -57 -31 -75 -31 -150 1 -73 5 -94 30 -145 53 -111 175 -204 310
-240 74 -19 213 -19 285 0 189 50 327 193 346 360 5 49 13 67 41 99 49 54 73
111 73 176 0 67 -22 113 -73 154 -65 52 -189 48 -277 -9 l-36 -22 -69 18 c-75
19 -187 24 -247 10 -33 -8 -39 -6 -70 26 -66 68 -193 107 -263 82z m935 -102
c55 -29 90 -90 90 -157 0 -73 -89 -234 -104 -189 -50 141 -104 215 -200 270
l-51 29 35 0 c133 0 219 -91 221 -232 1 -64 2 -68 10 -38 5 19 6 55 3 80 -16
120 -109 200 -234 200 -52 0 -49 4 27 36 76 31 146 31 203 1z m-385 -22 c149
-32 271 -122 327 -242 25 -53 30 -75 30 -140 -1 -67 -5 -85 -37 -149 -161
-326 -716 -324 -877 4 -29 58 -33 76 -33 147 0 68 4 89 29 140 92 188 328 289
561 240z"/>
<path d="M1302 1008 c-14 -14 -16 -57 -3 -76 5 -8 17 -12 27 -10 23 4 32 62
13 84 -14 17 -21 18 -37 2z"/>
<path d="M1704 1012 c-22 -14 -26 -52 -8 -79 l17 -27 18 23 c11 13 19 29 19
36 0 21 -34 56 -46 47z"/>
<path d="M1441 834 c-44 -19 -34 -29 16 -15 48 14 53 14 53 -1 0 -16 -78 -88
-95 -88 -8 0 -15 -4 -15 -10 0 -31 81 16 110 62 11 18 20 27 20 19 0 -19 46
-78 71 -92 37 -20 31 -2 -15 45 -66 65 -62 88 12 67 39 -12 44 5 6 19 -37 15
-124 11 -163 -6z"/>
</g>
</svg>
